<?xml version="1.0" encoding="UTF-8"?><svg id="uuid-de4e8c64-dfd9-4d9b-ab46-5dbd9d9b1ddb" xmlns="http://www.w3.org/2000/svg" viewBox="0 0 1024 1024"><defs><style>.uuid-3f3451c0-fd75-4a92-acad-f11dc750059f{stroke-width:18px;}.uuid-3f3451c0-fd75-4a92-acad-f11dc750059f,.uuid-ea702cf8-8b87-407b-8174-848661dabf31,.uuid-2b63509c-45d3-44bd-abaf-7875c5dad6b6,.uuid-4530bc84-f75f-4efe-ad64-066afed641dd,.uuid-836abd1c-d691-476f-bf42-3b646fd34b38,.uuid-d71e3ece-8f6a-4a57-967b-665f06fc0fa4,.uuid-f51c56d0-0137-4943-aa84-fd3262c65ffb,.uuid-0053eee5-d8a4-4b1f-bac6-a4a1a0b28ce6,.uuid-de599c64-e221-459c-8b23-69871b9113ff,.uuid-5fb85e69-2d3d-485d-9e5a-a799f14842b6,.uuid-9bc9e7c4-a60c-42f7-8821-53051d4f9953{fill:none;stroke-linecap:round;stroke-linejoin:round;}.uuid-3f3451c0-fd75-4a92-acad-f11dc750059f,.uuid-ea702cf8-8b87-407b-8174-848661dabf31,.uuid-2b63509c-45d3-44bd-abaf-7875c5dad6b6,.uuid-4530bc84-f75f-4efe-ad64-066afed641dd,.uuid-836abd1c-d691-476f-bf42-3b646fd34b38,.uuid-d71e3ece-8f6a-4a57-967b-665f06fc0fa4,.uuid-f51c56d0-0137-4943-aa84-fd3262c65ffb,.uuid-0053eee5-d8a4-4b1f-bac6-a4a1a0b28ce6,.uuid-8c7671f0-a34e-4ffc-ab59-62802f26ccf8,.uuid-b2694214-eec2-4cdd-b390-db5aaaf48bcb,.uuid-b21a9777-9064-49cc-aefd-2eae2ee3d05d{stroke:#396175;}.uuid-ea702cf8-8b87-407b-8174-848661dabf31{stroke-dasharray:18 18;}.uuid-ea702cf8-8b87-407b-8174-848661dabf31,.uuid-f51c56d0-0137-4943-aa84-fd3262c65ffb{stroke-width:6px;}.uuid-2b63509c-45d3-44bd-abaf-7875c5dad6b6{stroke-width:8px;}.uuid-4530bc84-f75f-4efe-ad64-066afed641dd{stroke-width:8.5px;}.uuid-836abd1c-d691-476f-bf42-3b646fd34b38{stroke-width:2.83px;}.uuid-d71e3ece-8f6a-4a57-967b-665f06fc0fa4,.uuid-8c7671f0-a34e-4ffc-ab59-62802f26ccf8,.uuid-b2694214-eec2-4cdd-b390-db5aaaf48bcb,.uuid-b21a9777-9064-49cc-aefd-2eae2ee3d05d{stroke-width:4px;}.uuid-0053eee5-d8a4-4b1f-bac6-a4a1a0b28ce6{stroke-width:5px;}.uuid-de599c64-e221-459c-8b23-69871b9113ff{stroke:#eacec5;}.uuid-de599c64-e221-459c-8b23-69871b9113ff,.uuid-5fb85e69-2d3d-485d-9e5a-a799f14842b6,.uuid-9bc9e7c4-a60c-42f7-8821-53051d4f9953{stroke-dasharray:24 16;stroke-width:8px;}.uuid-8c7671f0-a34e-4ffc-ab59-62802f26ccf8,.uuid-867dd09b-c7bb-4d32-a2cb-426c0fb2f226{fill:#e49865;}.uuid-c0e34e9d-3853-4826-91c2-18cb158cda4b{fill:#8cb4c3;}.uuid-b2694214-eec2-4cdd-b390-db5aaaf48bcb,.uuid-f1c5629b-9859-458a-94d8-f97452167461{fill:#f6edde;}.uuid-5610dce7-b983-41b7-9394-f5a61ddab2b0{isolation:isolate;}.uuid-5fb85e69-2d3d-485d-9e5a-a799f14842b6{stroke:#cbd6d5;}.uuid-21d18697-09d6-46ec-bae3-a9a027f63898,.uuid-b21a9777-9064-49cc-aefd-2eae2ee3d05d{fill:#cbd6d5;}.uuid-9ce28d4a-fa63-4cc3-bb15-161ed262f703{fill:#eacec5;}.uuid-9bc9e7c4-a60c-42f7-8821-53051d4f9953{stroke:#8cb4c3;}.uuid-9e05ed6f-1f66-42c2-87b1-e20dd72fd829{fill:#396175;}</style></defs><path class="uuid-f1c5629b-9859-458a-94d8-f97452167461" d="M512,984.5c-.73,0-1.47-.19-2.13-.57l-405.51-234.12c-1.32-.76-2.13-2.16-2.13-3.68v-468.24c0-1.52.81-2.92,2.13-3.68L509.87,40.07c.66-.38,1.39-.57,2.13-.57s1.47.19,2.13.57l405.51,234.12c1.32.76,2.13,2.16,2.13,3.68v468.24c0,1.52-.81,2.92-2.13,3.68l-405.51,234.12c-.66.38-1.39.57-2.13.57Z"/><path class="uuid-9e05ed6f-1f66-42c2-87b1-e20dd72fd829" d="M512,43.76l405.51,234.12v468.24s-405.51,234.12-405.51,234.12l-405.51-234.12v-468.24S512,43.76,512,43.76M512,35.25c-1.47,0-2.94.38-4.25,1.14L102.24,270.51c-2.63,1.52-4.25,4.33-4.25,7.36v468.24c0,3.04,1.62,5.85,4.25,7.36l405.51,234.12c1.32.76,2.78,1.14,4.25,1.14s2.94-.38,4.25-1.14l405.51-234.12c2.63-1.52,4.25-4.33,4.25-7.36v-468.24c0-3.04-1.62-5.85-4.25-7.36L516.25,36.39c-1.32-.76-2.78-1.14-4.25-1.14h0Z"/><path class="uuid-b21a9777-9064-49cc-aefd-2eae2ee3d05d" d="M466,140v84c0,10,20,20,46,20s46-10,46-20v-84"/><path class="uuid-d71e3ece-8f6a-4a57-967b-665f06fc0fa4" d="M466,167c0,10,20,20,46,20s46-10,46-20"/><path class="uuid-d71e3ece-8f6a-4a57-967b-665f06fc0fa4" d="M466,196.99c0,10,20,20,46,20s46-10,46-20"/><ellipse class="uuid-b21a9777-9064-49cc-aefd-2eae2ee3d05d" cx="512" cy="140" rx="46" ry="18"/><path class="uuid-ea702cf8-8b87-407b-8174-848661dabf31" d="M512,252v95.04"/><line class="uuid-ea702cf8-8b87-407b-8174-848661dabf31" x1="338" y1="304" x2="686" y2="304"/><line class="uuid-ea702cf8-8b87-407b-8174-848661dabf31" x1="338" y1="304" x2="338" y2="720"/><line class="uuid-ea702cf8-8b87-407b-8174-848661dabf31" x1="686" y1="304" x2="686" y2="720"/><circle class="uuid-8c7671f0-a34e-4ffc-ab59-62802f26ccf8" cx="338" cy="304" r="16"/><circle class="uuid-8c7671f0-a34e-4ffc-ab59-62802f26ccf8" cx="512" cy="304" r="16"/><circle class="uuid-8c7671f0-a34e-4ffc-ab59-62802f26ccf8" cx="686" cy="304" r="16"/><circle class="uuid-8c7671f0-a34e-4ffc-ab59-62802f26ccf8" cx="338" cy="498" r="16"/><circle class="uuid-8c7671f0-a34e-4ffc-ab59-62802f26ccf8" cx="686" cy="498" r="16"/><rect class="uuid-b2694214-eec2-4cdd-b390-db5aaaf48bcb" x="190.01" y="260.01" width="104" height="138"/><line class="uuid-d71e3ece-8f6a-4a57-967b-665f06fc0fa4" x1="224.67" y1="260.01" x2="224.67" y2="398.01"/><line class="uuid-d71e3ece-8f6a-4a57-967b-665f06fc0fa4" x1="259.34" y1="260.01" x2="259.34" y2="398.01"/><line class="uuid-d71e3ece-8f6a-4a57-967b-665f06fc0fa4" x1="190.01" y1="306.01" x2="294.01" y2="306.01"/><line class="uuid-d71e3ece-8f6a-4a57-967b-665f06fc0fa4" x1="190.01" y1="352.01" x2="294.01" y2="352.01"/><rect class="uuid-21d18697-09d6-46ec-bae3-a9a027f63898" x="196.01" y="266.01" width="24" height="34"/><rect class="uuid-21d18697-09d6-46ec-bae3-a9a027f63898" x="230.01" y="266.01" width="24" height="34"/><rect class="uuid-9ce28d4a-fa63-4cc3-bb15-161ed262f703" x="196.01" y="312.01" width="24" height="34"/><rect class="uuid-867dd09b-c7bb-4d32-a2cb-426c0fb2f226" x="230.01" y="312.01" width="24" height="34"/><rect class="uuid-21d18697-09d6-46ec-bae3-a9a027f63898" x="196.01" y="358.01" width="24" height="34"/><rect class="uuid-21d18697-09d6-46ec-bae3-a9a027f63898" x="230.01" y="358.01" width="24" height="34"/><rect class="uuid-b2694214-eec2-4cdd-b390-db5aaaf48bcb" x="729.99" y="260.01" width="104" height="138"/><line class="uuid-d71e3ece-8f6a-4a57-967b-665f06fc0fa4" x1="764.66" y1="260.01" x2="764.66" y2="398.01"/><line class="uuid-d71e3ece-8f6a-4a57-967b-665f06fc0fa4" x1="799.33" y1="260.01" x2="799.33" y2="398.01"/><line class="uuid-d71e3ece-8f6a-4a57-967b-665f06fc0fa4" x1="729.99" y1="306.01" x2="833.99" y2="306.01"/><line class="uuid-d71e3ece-8f6a-4a57-967b-665f06fc0fa4" x1="729.99" y1="352.01" x2="833.99" y2="352.01"/><rect class="uuid-21d18697-09d6-46ec-bae3-a9a027f63898" x="735.99" y="266.01" width="24" height="34"/><rect class="uuid-21d18697-09d6-46ec-bae3-a9a027f63898" x="769.99" y="266.01" width="24" height="34"/><rect class="uuid-9ce28d4a-fa63-4cc3-bb15-161ed262f703" x="735.99" y="312.01" width="24" height="34"/><rect class="uuid-21d18697-09d6-46ec-bae3-a9a027f63898" x="769.99" y="312.01" width="24" height="34"/><rect class="uuid-21d18697-09d6-46ec-bae3-a9a027f63898" x="735.99" y="358.01" width="24" height="34"/><rect class="uuid-21d18697-09d6-46ec-bae3-a9a027f63898" x="769.99" y="358.01" width="24" height="34"/><line class="uuid-0053eee5-d8a4-4b1f-bac6-a4a1a0b28ce6" x1="160" y1="658" x2="840" y2="658"/><ellipse class="uuid-c0e34e9d-3853-4826-91c2-18cb158cda4b" cx="219.02" cy="523.89" rx="38" ry="83.34"/><line class="uuid-0053eee5-d8a4-4b1f-bac6-a4a1a0b28ce6" x1="219.02" y1="516.69" x2="219.02" y2="658"/><path class="uuid-836abd1c-d691-476f-bf42-3b646fd34b38" d="M219.02,559.2l-24-30M219.02,559.2l24-30"/><line class="uuid-2b63509c-45d3-44bd-abaf-7875c5dad6b6" x1="227.99" y1="610" x2="325.99" y2="610"/><line class="uuid-2b63509c-45d3-44bd-abaf-7875c5dad6b6" x1="239.99" y1="594" x2="239.99" y2="656"/><line class="uuid-2b63509c-45d3-44bd-abaf-7875c5dad6b6" x1="275.99" y1="594" x2="275.99" y2="656"/><line class="uuid-2b63509c-45d3-44bd-abaf-7875c5dad6b6" x1="311.99" y1="594" x2="311.99" y2="656"/><path class="uuid-b21a9777-9064-49cc-aefd-2eae2ee3d05d" d="M753.99,658h-50c-20,0-32-10-32-27,0-18,12-29,28-29,2-17,16-30,32-30,15,0,28,9,32,22,4-3,10-4,16-4,16,0,28,13,28,30,12,2,22,13,22,26,0,7-4,12-10,12h-66Z"/><path class="uuid-836abd1c-d691-476f-bf42-3b646fd34b38" d="M743.99,639v19M743.99,640l-23.48-12.87M743.99,640l20-20"/><path class="uuid-3f3451c0-fd75-4a92-acad-f11dc750059f" d="M396,468l116-96,116,96"/><line class="uuid-4530bc84-f75f-4efe-ad64-066afed641dd" x1="418" y1="450.56" x2="418" y2="656.22"/><line class="uuid-4530bc84-f75f-4efe-ad64-066afed641dd" x1="606" y1="450.56" x2="606" y2="656.22"/><rect class="uuid-9e05ed6f-1f66-42c2-87b1-e20dd72fd829" x="466" y="526" width="92" height="132" rx="14" ry="14"/><circle class="uuid-867dd09b-c7bb-4d32-a2cb-426c0fb2f226" cx="512" cy="566" r="18"/><circle class="uuid-f1c5629b-9859-458a-94d8-f97452167461" cx="512" cy="566" r="10"/><path class="uuid-f1c5629b-9859-458a-94d8-f97452167461" d="M512,598c-8,0-14,6-14,14,0,5,2,8,5,11l-3,21.39h24l-3-21.39c3-3,5-6,5-11,0-8-6-14-14-14Z"/><rect class="uuid-9e05ed6f-1f66-42c2-87b1-e20dd72fd829" x="476" y="435.99" width="28" height="28" rx="2" ry="2"/><rect class="uuid-9e05ed6f-1f66-42c2-87b1-e20dd72fd829" x="520" y="435.99" width="28" height="28" rx="2" ry="2"/><rect class="uuid-9e05ed6f-1f66-42c2-87b1-e20dd72fd829" x="476" y="479.99" width="28" height="28" rx="2" ry="2"/><rect class="uuid-9e05ed6f-1f66-42c2-87b1-e20dd72fd829" x="520" y="479.99" width="28" height="28" rx="2" ry="2"/><rect class="uuid-9e05ed6f-1f66-42c2-87b1-e20dd72fd829" x="574" y="392" width="22" height="41.97" rx="2" ry="2"/><rect class="uuid-9e05ed6f-1f66-42c2-87b1-e20dd72fd829" x="566" y="380" width="38" height="14" rx="2" ry="2"/><circle class="uuid-8c7671f0-a34e-4ffc-ab59-62802f26ccf8" cx="338" cy="720" r="16"/><circle class="uuid-8c7671f0-a34e-4ffc-ab59-62802f26ccf8" cx="686" cy="720" r="16"/><line class="uuid-f51c56d0-0137-4943-aa84-fd3262c65ffb" x1="160" y1="720" x2="306" y2="720"/><line class="uuid-f51c56d0-0137-4943-aa84-fd3262c65ffb" x1="370" y1="720" x2="654" y2="720"/><line class="uuid-f51c56d0-0137-4943-aa84-fd3262c65ffb" x1="718" y1="720" x2="834" y2="720"/><line class="uuid-5fb85e69-2d3d-485d-9e5a-a799f14842b6" x1="188" y1="750" x2="218" y2="750"/><line class="uuid-9bc9e7c4-a60c-42f7-8821-53051d4f9953" x1="250" y1="750" x2="338" y2="750"/><line class="uuid-de599c64-e221-459c-8b23-69871b9113ff" x1="686" y1="750" x2="834" y2="750"/><circle class="uuid-9e05ed6f-1f66-42c2-87b1-e20dd72fd829" cx="390" cy="750" r="4"/><circle class="uuid-9e05ed6f-1f66-42c2-87b1-e20dd72fd829" cx="426" cy="750" r="4"/><circle class="uuid-9e05ed6f-1f66-42c2-87b1-e20dd72fd829" cx="462" cy="750" r="4"/><circle class="uuid-9e05ed6f-1f66-42c2-87b1-e20dd72fd829" cx="498" cy="750" r="4"/><circle class="uuid-9e05ed6f-1f66-42c2-87b1-e20dd72fd829" cx="534" cy="750" r="4"/><circle class="uuid-9e05ed6f-1f66-42c2-87b1-e20dd72fd829" cx="570" cy="750" r="4"/><circle class="uuid-9e05ed6f-1f66-42c2-87b1-e20dd72fd829" cx="606" cy="750" r="4"/><g class="uuid-5610dce7-b983-41b7-9394-f5a61ddab2b0"><path class="uuid-9e05ed6f-1f66-42c2-87b1-e20dd72fd829" d="M447.83,865.81h-.2c-.6,1.52-1.46,2.96-2.58,4.32-1.13,1.36-2.5,2.56-4.12,3.62-1.62,1.06-3.46,1.88-5.51,2.48-2.05.59-4.3.89-6.75.89-5.42,0-9.62-1.17-12.6-3.52-2.98-2.35-4.46-5.97-4.46-10.86,0-2.98.6-5.41,1.79-7.29,1.19-1.88,2.69-3.37,4.51-4.46,1.82-1.09,3.84-1.87,6.05-2.33,2.22-.46,4.35-.79,6.4-.99l5.85-.5c2.71-.2,4.84-.51,6.4-.94,1.55-.43,2.73-1.03,3.52-1.79.79-.76,1.29-1.74,1.49-2.93s.3-2.68.3-4.46c0-1.39-.27-2.68-.79-3.87-.53-1.19-1.36-2.25-2.48-3.17-1.13-.93-2.58-1.65-4.37-2.18-1.79-.53-3.97-.79-6.55-.79-4.56,0-8.25,1.13-11.06,3.37-2.81,2.25-4.35,5.66-4.61,10.22h-3.77c.26-5.62,2.07-9.84,5.41-12.65,3.34-2.81,8.09-4.22,14.24-4.22s10.63,1.21,13.44,3.62c2.81,2.42,4.22,5.57,4.22,9.47v29.67c0,.73.02,1.46.05,2.18.03.73.15,1.39.35,1.98.2.59.53,1.08.99,1.44.46.36,1.12.54,1.98.54.66,0,1.59-.1,2.78-.3v3.17c-.99.26-2.02.4-3.08.4-1.52,0-2.73-.2-3.62-.6-.89-.4-1.57-.92-2.03-1.59-.46-.66-.78-1.44-.94-2.33-.17-.89-.25-1.87-.25-2.93v-2.68ZM447.83,846.96c-.93,1.12-2.33,1.88-4.22,2.28-1.89.4-3.99.69-6.3.89l-6.35.59c-1.85.2-3.71.48-5.56.84-1.85.36-3.52.98-5.01,1.83-1.49.86-2.7,2.03-3.62,3.52-.93,1.49-1.39,3.42-1.39,5.8,0,3.77,1.19,6.57,3.57,8.38,2.38,1.82,5.66,2.73,9.82,2.73s7.7-.78,10.22-2.33c2.51-1.55,4.43-3.34,5.75-5.36,1.32-2.02,2.17-3.97,2.53-5.85.36-1.88.55-3.16.55-3.82v-9.52Z"/><path class="uuid-9e05ed6f-1f66-42c2-87b1-e20dd72fd829" d="M510.34,865.01h-.2c-2.12,4.04-4.76,7.06-7.94,9.08-3.17,2.02-7.04,3.03-11.61,3.03-3.84,0-7.14-.73-9.92-2.18s-5.06-3.41-6.85-5.85c-1.79-2.45-3.11-5.27-3.97-8.48-.86-3.21-1.29-6.56-1.29-10.07,0-3.77.46-7.29,1.39-10.57.93-3.27,2.33-6.1,4.22-8.48,1.89-2.38,4.25-4.27,7.09-5.66,2.84-1.39,6.18-2.08,10.02-2.08,2.05,0,4.07.28,6.05.84,1.98.56,3.82,1.37,5.51,2.43,1.69,1.06,3.16,2.38,4.42,3.97,1.26,1.59,2.22,3.37,2.88,5.36h.2v-31.25h3.77v70.84h-3.77v-10.91ZM491.39,873.84c3.24,0,6.04-.66,8.38-1.98,2.35-1.32,4.3-3.08,5.85-5.26,1.55-2.18,2.71-4.68,3.47-7.49.76-2.81,1.14-5.67,1.14-8.58s-.38-5.87-1.14-8.68c-.76-2.81-1.9-5.32-3.42-7.54-1.52-2.21-3.49-3.98-5.9-5.31-2.42-1.32-5.24-1.98-8.48-1.98s-6.25.65-8.63,1.93c-2.38,1.29-4.35,3.03-5.9,5.21-1.55,2.18-2.68,4.7-3.37,7.54-.69,2.84-1.04,5.79-1.04,8.83s.38,5.87,1.14,8.68c.76,2.81,1.92,5.31,3.47,7.49,1.55,2.18,3.52,3.92,5.9,5.21,2.38,1.29,5.22,1.94,8.53,1.94Z"/><path class="uuid-9e05ed6f-1f66-42c2-87b1-e20dd72fd829" d="M572.84,865.01h-.2c-2.12,4.04-4.76,7.06-7.94,9.08-3.18,2.02-7.04,3.03-11.61,3.03-3.84,0-7.14-.73-9.92-2.18-2.78-1.45-5.06-3.41-6.85-5.85-1.79-2.45-3.11-5.27-3.97-8.48-.86-3.21-1.29-6.56-1.29-10.07,0-3.77.46-7.29,1.39-10.57.92-3.27,2.33-6.1,4.22-8.48,1.89-2.38,4.25-4.27,7.09-5.66,2.84-1.39,6.18-2.08,10.02-2.08,2.05,0,4.07.28,6.05.84,1.98.56,3.82,1.37,5.51,2.43,1.69,1.06,3.16,2.38,4.41,3.97,1.26,1.59,2.22,3.37,2.88,5.36h.2v-31.25h3.77v70.84h-3.77v-10.91ZM553.89,873.84c3.24,0,6.04-.66,8.38-1.98,2.35-1.32,4.3-3.08,5.85-5.26,1.55-2.18,2.71-4.68,3.47-7.49.76-2.81,1.14-5.67,1.14-8.58s-.38-5.87-1.14-8.68c-.76-2.81-1.9-5.32-3.42-7.54-1.52-2.21-3.49-3.98-5.9-5.31-2.42-1.32-5.24-1.98-8.48-1.98s-6.25.65-8.63,1.93c-2.38,1.29-4.35,3.03-5.9,5.21-1.55,2.18-2.68,4.7-3.37,7.54-.69,2.84-1.04,5.79-1.04,8.83s.38,5.87,1.14,8.68c.76,2.81,1.92,5.31,3.47,7.49,1.55,2.18,3.52,3.92,5.9,5.21,2.38,1.29,5.22,1.94,8.53,1.94Z"/><path class="uuid-9e05ed6f-1f66-42c2-87b1-e20dd72fd829" d="M599.73,836.24h.3c.46-1.65,1.31-3.21,2.53-4.66,1.22-1.45,2.71-2.71,4.46-3.77,1.75-1.06,3.7-1.87,5.85-2.43,2.15-.56,4.38-.81,6.7-.74v3.77c-1.98-.26-4.25-.07-6.79.59-2.55.66-4.98,2.12-7.29,4.37-.93.99-1.74,1.95-2.43,2.88-.69.93-1.27,1.95-1.74,3.08-.46,1.12-.83,2.38-1.09,3.77-.27,1.39-.43,3.04-.5,4.96v27.88h-3.77v-51h3.77v11.31Z"/></g></svg>